<?xml version="1.0" standalone="no"?>
<svg xmlns:xlink="http://www.w3.org/1999/xlink" id="wave" style="transform:rotate(180deg); transition: 0.3s" viewBox="0 0 1440 490" version="1.1" xmlns="http://www.w3.org/2000/svg"><defs><linearGradient id="sw-gradient-0" x1="0" x2="0" y1="1" y2="0"><stop stop-color="rgba(244, 244, 244, 1)" offset="0%"/><stop stop-color="rgba(72, 134, 185, 1)" offset="100%"/></linearGradient></defs><path style="transform:translate(0, 0px); opacity:1" fill="url(#sw-gradient-0)" d="M0,392L120,343C240,294,480,196,720,204.2C960,212,1200,327,1440,318.5C1680,310,1920,180,2160,171.5C2400,163,2640,278,2880,269.5C3120,261,3360,131,3600,106.2C3840,82,4080,163,4320,228.7C4560,294,4800,343,5040,310.3C5280,278,5520,163,5760,106.2C6000,49,6240,49,6480,114.3C6720,180,6960,310,7200,359.3C7440,408,7680,376,7920,351.2C8160,327,8400,310,8640,285.8C8880,261,9120,229,9360,228.7C9600,229,9840,261,10080,302.2C10320,343,10560,392,10800,367.5C11040,343,11280,245,11520,212.3C11760,180,12000,212,12240,212.3C12480,212,12720,180,12960,171.5C13200,163,13440,180,13680,212.3C13920,245,14160,294,14400,318.5C14640,343,14880,343,15120,285.8C15360,229,15600,114,15840,73.5C16080,33,16320,65,16560,138.8C16800,212,17040,327,17160,383.8L17280,441L17280,490L17160,490C17040,490,16800,490,16560,490C16320,490,16080,490,15840,490C15600,490,15360,490,15120,490C14880,490,14640,490,14400,490C14160,490,13920,490,13680,490C13440,490,13200,490,12960,490C12720,490,12480,490,12240,490C12000,490,11760,490,11520,490C11280,490,11040,490,10800,490C10560,490,10320,490,10080,490C9840,490,9600,490,9360,490C9120,490,8880,490,8640,490C8400,490,8160,490,7920,490C7680,490,7440,490,7200,490C6960,490,6720,490,6480,490C6240,490,6000,490,5760,490C5520,490,5280,490,5040,490C4800,490,4560,490,4320,490C4080,490,3840,490,3600,490C3360,490,3120,490,2880,490C2640,490,2400,490,2160,490C1920,490,1680,490,1440,490C1200,490,960,490,720,490C480,490,240,490,120,490L0,490Z"/></svg>